<svg width="23" height="23" viewBox="0 0 23 23" fill="none" xmlns="http://www.w3.org/2000/svg">
<path d="M20.362 11.1229H19.0177V5.81143C19.0291 5.42227 18.8748 5.04464 18.5882 4.76067C18.3016 4.47671 17.906 4.30935 17.4874 4.295H12.1354V2.77857C12.156 2.19425 11.9263 1.62621 11.4967 1.19905C11.0672 0.771891 10.4729 0.520494 9.84415 0.5C9.21542 0.520494 8.62111 0.771891 8.19157 1.19905C7.76203 1.62621 7.53234 2.19425 7.55288 2.77857V4.295H2.20094C1.7823 4.30935 1.38668 4.47671 1.10011 4.76067C0.813534 5.04464 0.659179 5.42227 0.670605 5.81143V10.3607C1.08593 10.3729 1.4946 10.461 1.87324 10.6201C2.25189 10.7791 2.59309 11.006 2.87734 11.2876C3.16159 11.5693 3.38332 11.9003 3.52984 12.2616C3.67636 12.623 3.74481 13.0076 3.73127 13.3936C3.74595 13.7802 3.67834 14.1657 3.53233 14.5279C3.38632 14.8902 3.16478 15.2221 2.88042 15.5046C2.59606 15.7871 2.25447 16.0146 1.87526 16.1742C1.49604 16.3337 1.08666 16.4221 0.670605 16.4343V20.9836C0.659179 21.3727 0.813534 21.7504 1.10011 22.0343C1.38668 22.3183 1.7823 22.4856 2.20094 22.5H6.78348V22.4371C6.76994 22.0512 6.83839 21.6665 6.98492 21.3052C7.13144 20.9439 7.35316 20.6129 7.63741 20.3312C7.92166 20.0495 8.26287 19.8227 8.64151 19.6637C9.02016 19.5046 9.42883 19.4165 9.84415 19.4043C10.2595 19.4165 10.6681 19.5046 11.0468 19.6637C11.4254 19.8227 11.7666 20.0495 12.0509 20.3312C12.3351 20.6129 12.5569 20.9439 12.7034 21.3052C12.8499 21.6665 12.9184 22.0512 12.9048 22.4371V22.5H17.4874C17.906 22.4856 18.3016 22.3183 18.5882 22.0343C18.8748 21.7504 19.0291 21.3727 19.0177 20.9836V15.6721H20.362C20.9863 15.638 21.573 15.3835 22.002 14.9607C22.4311 14.5379 22.67 13.9787 22.67 13.3975C22.67 12.8163 22.4311 12.2571 22.002 11.8343C21.573 11.4115 20.9863 11.157 20.362 11.1229Z" fill="white"/>
</svg>
