<svg width="71" height="42" viewBox="0 0 71 42" fill="none" xmlns="http://www.w3.org/2000/svg">
<path fill-rule="evenodd" clip-rule="evenodd" d="M11.4244 20.1653V0.895526C11.4244 0.395968 11.8295 0 12.3199 0H18.0039C18.5035 0 18.8995 0.405131 18.8995 0.895526V20.1653H11.4121H11.4244ZM11.4244 33.2971V30.8481H18.9117V33.2971H11.4244Z" fill="white"/>
<path fill-rule="evenodd" clip-rule="evenodd" d="M23.3078 41.7987H7.03566C6.53611 41.7987 6.14014 41.3936 6.14014 40.9032V35.9989C6.14014 35.4994 6.54527 35.1034 7.03566 35.1034H23.3109C23.8105 35.1034 24.2065 35.5085 24.2065 35.9989V40.9032C24.2065 41.4027 23.8013 41.7987 23.3109 41.7987H23.3078Z" fill="white"/>
<path fill-rule="evenodd" clip-rule="evenodd" d="M51.9287 20.1653V0.895526C51.9287 0.395968 52.3339 0 52.8243 0H58.5083C59.0079 0 59.4039 0.405131 59.4039 0.895526V20.1653H51.9165H51.9287ZM51.9287 33.2971V30.8481H59.4161V33.2971H51.9287Z" fill="white"/>
<path fill-rule="evenodd" clip-rule="evenodd" d="M63.8022 41.7987H47.5269C47.0273 41.7987 46.6313 41.3936 46.6313 40.9032V35.9989C46.6313 35.4994 47.0365 35.1034 47.5269 35.1034H63.8022C64.3017 35.1034 64.6977 35.5085 64.6977 35.9989V40.9032C64.6977 41.4027 64.2926 41.7987 63.8022 41.7987Z" fill="white"/>
<path fill-rule="evenodd" clip-rule="evenodd" d="M69.9349 29.0564H0.904315C0.404758 29.0564 0.00878906 28.6513 0.00878906 28.1609V22.8667C0.00878906 22.3672 0.41392 21.9712 0.904315 21.9712H69.9325C70.4321 21.9712 70.8281 22.3763 70.8281 22.8667V28.1609C70.8281 28.6604 70.4229 29.0564 69.9325 29.0564H69.9349Z" fill="white"/>
<path fill-rule="evenodd" clip-rule="evenodd" d="M0.903623 23.7625C0.608147 23.7625 0.309631 23.6132 0.139049 23.3421C-0.12596 22.9217 -0.00107438 22.3673 0.419294 22.1024C0.419294 22.1024 3.0877 20.3935 5.753 17.3687C8.17772 14.6242 11.1324 10.1707 11.4218 4.57215C11.4461 4.07259 11.8665 3.69791 12.366 3.72232C12.8656 3.74673 13.2403 4.17314 13.2159 4.66658C12.9661 9.52515 10.8368 14.3439 7.05667 18.6025C4.22684 21.8009 1.48841 23.5463 1.3726 23.6164C1.22334 23.7108 1.0619 23.7565 0.888276 23.7565L0.903623 23.7625Z" fill="white"/>
<path fill-rule="evenodd" clip-rule="evenodd" d="M35.4188 13.2653C28.7204 13.2653 22.3025 10.341 17.3585 5.03758C17.0235 4.67205 17.0387 4.10244 17.4042 3.76736C17.7698 3.43228 18.3394 3.44752 18.6745 3.81305C23.2741 8.74773 29.226 11.471 35.4246 11.471C41.6235 11.471 47.5662 8.75077 52.1748 3.81305C52.5099 3.44752 53.0796 3.43229 53.445 3.76736C53.8105 4.10243 53.8258 4.67209 53.4907 5.03758C48.5469 10.3409 42.129 13.2653 35.4305 13.2653H35.4188Z" fill="white"/>
<path fill-rule="evenodd" clip-rule="evenodd" d="M69.9347 23.7626C69.7702 23.7626 69.6057 23.7169 69.4503 23.6224C69.3346 23.5524 66.6053 21.807 63.7663 18.6085C59.9922 14.3501 57.8629 9.53084 57.6071 4.67266C57.5827 4.1731 57.9665 3.75272 58.4569 3.72839C58.9473 3.70403 59.3768 4.08784 59.4012 4.57823C59.6905 10.177 62.6453 14.6213 65.0699 17.3748C67.7383 20.3935 70.3793 22.0841 70.4036 22.1084C70.824 22.3735 70.9489 22.9279 70.6839 23.3482C70.5133 23.6223 70.2239 23.7685 69.9284 23.7685L69.9347 23.7626Z" fill="white"/>
</svg>
