<svg width="23" height="19" viewBox="0 0 23 19" fill="none" xmlns="http://www.w3.org/2000/svg">
<path d="M19.4895 2.36813C19.4831 2.35576 19.4725 2.34607 19.4596 2.34079C17.9705 1.65753 16.3989 1.17031 14.7844 0.891332C14.7697 0.888605 14.7546 0.890572 14.7411 0.896954C14.7276 0.903336 14.7165 0.913807 14.7093 0.926879C14.4953 1.31527 14.301 1.71422 14.1273 2.12219C12.3869 1.858 10.6166 1.858 8.87624 2.12219C8.70131 1.71318 8.50394 1.31414 8.28503 0.926879C8.27753 0.914091 8.26634 0.903861 8.25294 0.897521C8.23953 0.89118 8.22453 0.889024 8.20988 0.891332C6.59518 1.16973 5.02356 1.65698 3.53456 2.34082C3.52182 2.34623 3.51106 2.35545 3.50378 2.36723C0.526088 6.81403 -0.289615 11.1515 0.110541 15.4352C0.111667 15.4457 0.114893 15.4559 0.120026 15.4651C0.12516 15.4744 0.132097 15.4825 0.140424 15.4889C1.87431 16.7728 3.81368 17.7527 5.87578 18.387C5.8903 18.3913 5.90581 18.3911 5.92021 18.3864C5.93462 18.3817 5.94723 18.3727 5.95636 18.3605C6.39926 17.7579 6.79169 17.1198 7.12968 16.4527C7.13433 16.4435 7.13698 16.4335 7.13746 16.4232C7.13795 16.413 7.13625 16.4027 7.13249 16.3932C7.12873 16.3836 7.12299 16.375 7.11564 16.3678C7.1083 16.3606 7.09952 16.3551 7.08988 16.3516C6.47103 16.1148 5.87192 15.8293 5.29816 15.4979C5.28774 15.4918 5.27898 15.4832 5.27267 15.4729C5.26636 15.4626 5.26268 15.4509 5.26197 15.4388C5.26126 15.4267 5.26352 15.4147 5.26858 15.4037C5.27363 15.3927 5.28131 15.3831 5.29093 15.3758C5.41132 15.2856 5.53179 15.1918 5.64675 15.097C5.65697 15.0886 5.66932 15.0832 5.68244 15.0815C5.69555 15.0797 5.7089 15.0816 5.72097 15.087C9.47992 16.8025 13.5495 16.8025 17.2639 15.087C17.276 15.0813 17.2895 15.0791 17.3028 15.0807C17.3161 15.0823 17.3287 15.0877 17.3391 15.0961C17.4541 15.1909 17.5745 15.2856 17.6958 15.3758C17.7055 15.3831 17.7132 15.3926 17.7184 15.4035C17.7235 15.4145 17.7259 15.4265 17.7252 15.4386C17.7246 15.4506 17.721 15.4624 17.7148 15.4727C17.7085 15.4831 17.6999 15.4917 17.6895 15.4979C17.117 15.8321 16.5174 16.1174 15.8969 16.3507C15.8873 16.3543 15.8785 16.36 15.8712 16.3673C15.8639 16.3746 15.8582 16.3833 15.8546 16.3929C15.8509 16.4026 15.8493 16.4128 15.8498 16.4231C15.8504 16.4334 15.8531 16.4435 15.8578 16.4527C16.2015 17.1161 16.5934 17.7534 17.0303 18.3595C17.0391 18.3719 17.0517 18.3813 17.0662 18.3862C17.0806 18.3911 17.0963 18.3913 17.1109 18.3868C19.1766 17.7547 21.1194 16.7747 22.8555 15.4889C22.8639 15.4828 22.871 15.4749 22.8761 15.4658C22.8813 15.4567 22.8844 15.4466 22.8853 15.4361C23.3644 10.4837 22.0833 6.18176 19.4895 2.36813ZM7.69105 12.8269C6.55933 12.8269 5.62683 11.7883 5.62683 10.5129C5.62683 9.23739 6.54124 8.19875 7.69105 8.19875C8.84984 8.19875 9.77332 9.24641 9.75523 10.5128C9.75523 11.7883 8.84078 12.8269 7.69105 12.8269ZM15.3231 12.8269C14.1914 12.8269 13.2589 11.7883 13.2589 10.5129C13.2589 9.23739 14.1733 8.19875 15.3231 8.19875C16.4819 8.19875 17.4054 9.24641 17.3873 10.5128C17.3873 11.7883 16.4819 12.8269 15.3231 12.8269Z" fill="#2D2D2D"/>
</svg>
