<svg width="1920" height="182" viewBox="0 0 1920 182" fill="none" xmlns="http://www.w3.org/2000/svg">
<g clip-path="url(#clip0_1304_1198)">
<path d="M-2.55723e-06 100.874L-2.85435e-06 119.376C-2.85435e-06 119.376 168.5 84.0563 296.5 86.9999C424.5 89.9435 647.5 155.256 775.5 151.901C903.5 148.78 1064 65.9195 1192 56.4999C1320 47.0803 1478.5 88.1178 1620.5 88.1178C1837 82.4999 1872 98.8557 1936 95.4999L1920 44.3567L1920 -31.0001L1856 -31.0001C1792 -31.0001 1664 -31.0001 1536 -31C1408 -31 1280 -31 1152 -31C1024 -31 896 -31 768 -31C640 -31 512 -31 384 -30.9999C256 -30.9999 128 -30.9999 64 -30.9999L-1.4086e-05 -30.9999L-2.55723e-06 100.874Z" fill="#005787"/>
<path d="M-2.55498e-06 90.8745L-2.8521e-06 109.376C-2.8521e-06 109.376 184.5 56.5518 312.5 59.4954C440.5 62.439 647.5 145.256 775.5 141.901C903.5 138.78 1090 68.915 1218 59.4954C1346 50.0758 1478.5 78.1178 1620.5 78.1178C1837 72.5 1872 88.8557 1936 85.5L1920 34.3567L1920 -41L1856 -41C1792 -41 1664 -41 1536 -41C1408 -41 1280 -40.9999 1152 -40.9999C1024 -40.9999 896 -40.9999 768 -40.9999C640 -40.9999 512 -40.9999 384 -40.9999C256 -40.9999 128 -40.9998 64 -40.9998L-1.40838e-05 -40.9998L-2.55498e-06 90.8745Z" fill="#0091E1"/>
</g>
<defs>
<clipPath id="clip0_1304_1198">
<rect width="1920" height="223" fill="white" transform="matrix(1 -8.74228e-08 -8.74228e-08 -1 0 182)"/>
</clipPath>
</defs>
</svg>
