<svg width="1920" height="168" viewBox="0 0 1920 168" fill="none" xmlns="http://www.w3.org/2000/svg">
<path d="M1920 85.0454C1856 93.6812 1673.5 138.956 1545.5 143.148C1417.5 147.34 1306 54.3367 1178 67.5C1050 81.1663 896 133.926 768 152.119C640 169.978 512 169.978 384 165.534C256 160.755 201 147.927 137 143.148L3.58432e-06 127L1.39002e-05 9L64 9.00001C128 9.00001 256 9.00002 384 9.00003C512 9.00004 640 9.00006 768 9.00007C896 9.00008 1024 9.00009 1152 9.0001C1280 9.00011 1408 9.00012 1536 9.00013C1664 9.00015 1792 9.00016 1856 9.00016L1920 9.00017L1920 85.0454Z" fill="#008B64"/>
<path d="M1920 75.0454C1856 83.6812 1673.5 128.956 1545.5 133.148C1417.5 137.34 1280 61.8821 1152 75.0454C1024 88.7117 896 123.926 768 142.119C640 159.978 512 159.978 384 155.534C256 150.755 201 137.927 137 133.148L3.58432e-06 117L1.39002e-05 -1L64 -0.999994C128 -0.999989 256 -0.999978 384 -0.999966C512 -0.999955 640 -0.999944 768 -0.999933C896 -0.999922 1024 -0.99991 1152 -0.999899C1280 -0.999888 1408 -0.999877 1536 -0.999866C1664 -0.999855 1792 -0.999843 1856 -0.999838L1920 -0.999832L1920 75.0454Z" fill="#00E1A1"/>
</svg>
