<svg width="1917" height="221" viewBox="0 0 1917 221" fill="none" xmlns="http://www.w3.org/2000/svg">
<g clip-path="url(#clip0_1589_1042)">
<path d="M-3 139.874L-3.00001 113C-3.00001 113 159 121.056 287 124C385 124 644.5 194.256 772.5 190.901C900.5 187.78 1061 104.919 1189 95.4999C1317 86.0803 1475.5 127.118 1617.5 127.118C1834 121.5 1869 137.856 1933 134.5L1917 83.3566L1917 7.99991L1853 7.99991C1789 7.99992 1661 7.99993 1533 7.99994C1405 7.99995 1277 7.99996 1149 7.99998C1021 7.99999 893 8 765 8.00001C637 8.00002 509 8.00003 381 8.00004C253 8.00005 125 8.00007 61 8.00007L-3.00002 8.00008L-3 139.874Z" fill="#6A0103"/>
<path d="M-3 129.874L-2.99999 87.5C-2.99999 87.5 181.5 95.5518 309.5 98.4954C437.5 101.439 644.5 184.256 772.5 180.901C900.5 177.78 1087 107.915 1215 98.4954C1343 89.0758 1475.5 117.118 1617.5 117.118C1834 111.5 1869 127.856 1933 124.5L1917 73.3567L1917 -2L1853 -1.99999C1789 -1.99999 1661 -1.99998 1533 -1.99997C1405 -1.99996 1277 -1.99994 1149 -1.99993C1021 -1.99992 893 -1.99991 765 -1.9999C637 -1.99989 509 -1.99988 381 -1.99987C253 -1.99985 125 -1.99984 61 -1.99984L-3.00002 -1.99983L-3 129.874Z" fill="#BA1417"/>
</g>
<defs>
<clipPath id="clip0_1589_1042">
<rect width="1920" height="223" fill="white" transform="matrix(1 -8.74228e-08 -8.74228e-08 -1 -3 221)"/>
</clipPath>
</defs>
</svg>
