<svg width="1920" height="234" viewBox="0 0 1920 234" fill="none" xmlns="http://www.w3.org/2000/svg">
<g clip-path="url(#clip0_1304_1200)">
<path d="M1920 167.143L1855.93 144.892C1791.87 122.223 1696.27 68.2152 1568.13 67.9018C1440 68.2152 1270.82 120.656 1142.69 132.147C1014.56 143.638 904.443 109.896 776.31 110.21C648.177 109.896 510.533 145.205 382.4 167.143C254.267 189.08 126.133 212.062 62.0667 222.822L-2 234L-1.99998 -6.12151e-05L62.0667 -5.56142e-05C126.133 -5.00133e-05 254.267 -3.88115e-05 382.4 -2.76097e-05C510.533 -1.6408e-05 638.667 -5.20619e-06 766.8 5.99558e-06C894.933 1.71974e-05 1023.07 2.83991e-05 1151.2 3.96009e-05C1279.33 5.08027e-05 1407.47 6.20044e-05 1535.6 7.32062e-05C1663.73 8.4408e-05 1791.87 9.56098e-05 1855.93 0.000101211L1920 0.000106812L1920 167.143Z" fill="#916300"/>
<path d="M1920 144.012L1855.93 124.84C1791.87 105.309 1663.73 67.5056 1535.6 67.2356C1407.47 67.5056 1279.33 105.309 1151.2 115.209C1023.07 125.11 894.933 105.309 766.8 105.579C638.667 105.309 510.533 125.11 382.4 144.012C254.267 162.913 126.133 182.715 62.0665 191.985L-2.00012 201.616L-2.0001 0.000137149L62.0665 0.00014275C126.133 0.000148351 254.267 0.000159553 382.4 0.000170755C510.533 0.000181956 638.667 0.000193158 766.8 0.00020436C894.933 0.000215562 1023.07 0.000226763 1151.2 0.000237965C1279.33 0.000249167 1407.47 0.000260369 1535.6 0.00027157C1663.73 0.000282772 1791.87 0.000293974 1855.93 0.000299575L1920 0.000305176L1920 144.012Z" fill="#E19A00"/>
</g>
<defs>
<clipPath id="clip0_1304_1200">
<rect width="1922" height="234" fill="white" transform="translate(1920 234) rotate(-180)"/>
</clipPath>
</defs>
</svg>
